<svg width="40" height="40" viewBox="0 0 40 40" fill="none" xmlns="http://www.w3.org/2000/svg">
<path id="Instagram" fill-rule="evenodd" clip-rule="evenodd" d="M12 0H28C34.6274 0 40 5.37258 40 12V28C40 34.6274 34.6274 40 28 40H12C5.37258 40 0 34.6274 0 28V12C0 5.37258 5.37258 0 12 0ZM32 6C33 6 34 7 34 8C34 9 33 10 32 10C31 10 30 9 30 8C30 7 31 6 32 6ZM30 20C30 14.485 25.515 10 20 10C14.485 10 10 14.485 10 20C10 25.515 14.485 30 20 30C25.515 30 30 25.515 30 20ZM20 14C16.6863 14 14 16.6863 14 20C14 23.3137 16.6863 26 20 26C23.3137 26 26 23.3137 26 20C26 16.6863 23.3137 14 20 14Z" fill="#43311C" fill-opacity="0.9"/>
</svg>
