<svg width="40" height="40" viewBox="0 0 40 40" fill="none" xmlns="http://www.w3.org/2000/svg">
<path id="Linkedin" fill-rule="evenodd" clip-rule="evenodd" d="M36 0H4C1.79086 0 0 1.79086 0 4V36C0 38.2091 1.79086 40 4 40H36C38.2091 40 40 38.2091 40 36V4C40 1.79086 38.2091 0 36 0ZM8 9.12808C8 10.855 9.40063 12.258 11.1327 12.258C12.8594 12.258 14.2637 10.855 14.2637 9.12808C14.2637 7.403 12.8594 6 11.1327 6C9.40245 6 8 7.40118 8 9.12808ZM8.50098 32.0001H13.874V14.7274H8.50098V32.0001ZM34 32.0001H28.6306V23.6003C28.6306 21.5968 28.5942 19.0201 25.8384 19.0201C23.0426 19.0201 22.6128 21.2019 22.6128 23.4547V32.0001H17.2434V14.7274H22.3979V17.0875H22.4707C23.1883 15.73 24.9405 14.2979 27.5542 14.2979C32.9946 14.2979 34 17.8755 34 22.5267V32.0001Z" fill="#43311C" fill-opacity="0.9"/>
</svg>
