<svg width="40" height="40" viewBox="0 0 40 40" fill="none" xmlns="http://www.w3.org/2000/svg">
<path id="Facebook" fill-rule="evenodd" clip-rule="evenodd" d="M36 0H4C1.79086 0 0 1.79086 0 4V36C0 38.2091 1.79086 40 4 40H36C38.2091 40 40 38.2091 40 36V4C40 1.79086 38.2091 0 36 0ZM20 24.9411V39.9999H26V24.9411H31.1258L31.9481 19.294H26V16.8809C26 14.7162 26.6107 13.647 28.678 13.647H32V8.24651L31.9649 8.24187C31.3672 8.16276 30.1367 7.99992 27.8499 7.99992C22.9793 7.99992 20 10.5204 20 16.2616V19.294H14V24.9411H20Z" fill="#43311C" fill-opacity="0.9"/>
</svg>
