<svg width="40" height="40" viewBox="0 0 40 40" fill="none" xmlns="http://www.w3.org/2000/svg">
<path id="Twitter" fill-rule="evenodd" clip-rule="evenodd" d="M36 0H4C1.79086 0 0 1.79086 0 4V36C0 38.2091 1.79086 40 4 40H36C38.2091 40 40 38.2091 40 36V4C40 1.79086 38.2091 0 36 0ZM30.7004 12.4787C31.8624 12.3444 32.9694 12.0466 34 11.6041C33.23 12.7172 32.2555 13.6949 31.1323 14.4789C31.143 14.7174 31.1484 14.9568 31.1484 15.1974C31.1484 22.5369 25.372 31 14.8057 31C11.561 31 8.54252 30.0806 6 28.5052C6.45014 28.5573 6.90781 28.5833 7.37087 28.5833C10.0631 28.5833 12.5399 27.6952 14.5052 26.2052C11.9918 26.1604 9.87031 24.5538 9.13911 22.3474C9.4891 22.411 9.84985 22.4464 10.2192 22.4464C10.7437 22.4464 11.252 22.3787 11.7333 22.2516C9.10465 21.7425 7.12534 19.4976 7.12534 16.806V16.7363C7.89962 17.1517 8.78589 17.4016 9.72709 17.4308C8.18607 16.4354 7.17272 14.7351 7.17272 12.8088C7.17272 11.7894 7.45594 10.8357 7.94916 10.0152C10.7835 13.3763 15.0157 15.5878 19.7895 15.819C19.6926 15.4139 19.6409 14.9891 19.6409 14.5539C19.6409 11.4875 22.2125 9 25.3849 9C27.0369 9 28.5294 9.67471 29.5772 10.7545C30.8867 10.5046 32.1165 10.0423 33.2257 9.40608C32.7971 10.7034 31.8872 11.7915 30.7004 12.4787Z" fill="#43311C" fill-opacity="0.9"/>
</svg>
