<svg width="330" height="31" viewBox="0 0 330 31" fill="none" xmlns="http://www.w3.org/2000/svg">
<path d="M24.2508 15.28C24.2508 13.7333 24.0774 12.16 23.7308 10.56C23.4108 8.96 22.8775 7.48 22.1308 6.12C21.3841 4.76 20.3841 3.66667 19.1308 2.84C17.8774 1.98667 16.3308 1.56 14.4908 1.56C12.7041 1.56 11.1841 2 9.93078 2.88C8.67745 3.76 7.66411 4.90667 6.89078 6.32C6.11745 7.70667 5.54411 9.21333 5.17078 10.84C4.82411 12.44 4.65078 13.9867 4.65078 15.48C4.65078 17.0533 4.81078 18.64 5.13078 20.24C5.45078 21.8133 5.98411 23.2667 6.73078 24.6C7.47745 25.9067 8.47745 26.96 9.73078 27.76C11.0108 28.56 12.5974 28.96 14.4908 28.96C16.3841 28.96 17.9574 28.5467 19.2108 27.72C20.4641 26.8933 21.4508 25.8133 22.1708 24.48C22.9174 23.12 23.4508 21.64 23.7708 20.04C24.0908 18.44 24.2508 16.8533 24.2508 15.28ZM28.6108 15.16C28.6108 18.12 28.0641 20.7333 26.9708 23C25.9041 25.24 24.3174 26.9867 22.2108 28.24C20.1308 29.4933 17.5574 30.12 14.4908 30.12C11.5041 30.12 8.94412 29.52 6.81078 28.32C4.70411 27.0933 3.09078 25.3867 1.97078 23.2C0.850781 20.9867 0.290781 18.4133 0.290781 15.48C0.290781 13.4267 0.624115 11.4933 1.29078 9.68C1.95745 7.86667 2.91745 6.26667 4.17078 4.88C5.42411 3.49333 6.91745 2.41333 8.65078 1.64C10.4108 0.839999 12.3574 0.439999 14.4908 0.439999C17.4774 0.439999 20.0108 1.06667 22.0908 2.32C24.1974 3.54667 25.8108 5.26667 26.9308 7.48C28.0508 9.66667 28.6108 12.2267 28.6108 15.16ZM52.1033 7.92C52.1033 5.78667 51.4366 4.24 50.1033 3.28C48.7966 2.29333 47.1566 1.8 45.1833 1.8C44.6499 1.8 44.1033 1.81333 43.5433 1.84C42.9833 1.84 42.4233 1.84 41.8633 1.84C41.5966 1.84 41.3299 1.92 41.0633 2.08C40.7966 2.24 40.6633 2.46667 40.6633 2.76V14.12C41.2499 14.5467 41.9699 14.8 42.8233 14.88C43.6766 14.96 44.4366 15 45.1033 15C47.3966 15 49.1299 14.3867 50.3033 13.16C51.5033 11.9333 52.1033 10.1867 52.1033 7.92ZM56.5033 7.8C56.5033 9.53333 56.1699 10.9467 55.5033 12.04C54.8633 13.1333 53.9966 13.9867 52.9033 14.6C51.8099 15.2133 50.5699 15.64 49.1833 15.88C47.8233 16.0933 46.4233 16.2 44.9833 16.2C44.2633 16.2 43.5433 16.16 42.8233 16.08C42.1033 16 41.3966 15.9067 40.7033 15.8V27.76C40.7033 28.16 40.8766 28.4267 41.2233 28.56C41.5699 28.6933 41.9566 28.76 42.3833 28.76C42.8099 28.76 43.1566 28.76 43.4233 28.76C43.5833 28.76 43.7433 28.76 43.9033 28.76C44.0899 28.7333 44.2633 28.72 44.4233 28.72C44.6633 28.72 44.7833 28.8267 44.7833 29.04C44.7833 29.3867 44.7566 29.6267 44.7033 29.76C44.6499 29.8667 44.4366 29.92 44.0633 29.92C43.1566 29.92 42.2633 29.8933 41.3833 29.84C40.5033 29.7867 39.6233 29.76 38.7433 29.76C37.8366 29.76 36.9166 29.8 35.9833 29.88C35.0766 29.9333 34.1699 29.96 33.2633 29.96C32.9966 29.96 32.8633 29.7867 32.8633 29.44C32.8633 29.28 32.8899 29.1333 32.9433 29C32.9966 28.8667 33.1299 28.8 33.3433 28.8C33.6633 28.8 33.9833 28.8133 34.3033 28.84C34.6233 28.84 34.9433 28.84 35.2633 28.84C35.5833 28.84 35.8633 28.76 36.1033 28.6C36.3699 28.44 36.5166 28.1867 36.5433 27.84C36.5966 27.36 36.6099 26.88 36.5833 26.4C36.5833 25.8933 36.5833 25.4 36.5833 24.92C36.5833 23.96 36.5833 23 36.5833 22.04C36.5833 21.0533 36.5833 20.08 36.5833 19.12V12.12C36.5833 10.5467 36.5699 8.98667 36.5433 7.44C36.5433 5.86667 36.5433 4.30667 36.5433 2.76C36.5433 2.28 36.3033 2 35.8233 1.92C35.3699 1.81333 34.9699 1.76 34.6233 1.76C34.3833 1.76 34.1433 1.77333 33.9033 1.8C33.6633 1.8 33.4366 1.8 33.2233 1.8C33.0366 1.8 32.9299 1.72 32.9033 1.56C32.9033 1.37333 32.9033 1.22666 32.9033 1.12C32.9033 1.01333 32.9299 0.919999 32.9833 0.839999C33.0366 0.733332 33.1166 0.679998 33.2233 0.679998C34.1033 0.679998 34.9833 0.706666 35.8633 0.76C36.7433 0.813332 37.6366 0.839999 38.5433 0.839999C39.9299 0.839999 41.3166 0.813332 42.7033 0.76C44.0899 0.706666 45.4766 0.679998 46.8633 0.679998C47.9833 0.679998 49.1033 0.799998 50.2233 1.04C51.3699 1.28 52.4099 1.68 53.3433 2.24C54.3033 2.8 55.0633 3.53333 55.6233 4.44C56.2099 5.34667 56.5033 6.46667 56.5033 7.8ZM83.5042 23.16C83.5042 23.64 83.4642 24.1333 83.3842 24.64C83.3042 25.12 83.2376 25.6 83.1842 26.08C83.1042 26.6133 83.0509 27.16 83.0242 27.72C82.9976 28.2533 82.9176 28.7867 82.7842 29.32C82.7576 29.48 82.6776 29.64 82.5442 29.8C82.4376 29.9333 82.2909 30 82.1042 30C79.2509 30 76.3976 29.9867 73.5442 29.96C70.6909 29.9067 67.8376 29.88 64.9842 29.88C64.1309 29.88 63.2642 29.92 62.3842 30C61.5309 30.0533 60.6776 30.08 59.8242 30.08C59.6909 30.08 59.5576 30.04 59.4242 29.96C59.3176 29.8533 59.2642 29.7333 59.2642 29.6C59.2642 29.44 59.3042 29.2933 59.3842 29.16C59.4642 29 59.5976 28.92 59.7842 28.92C60.3442 28.92 60.8776 28.8933 61.3842 28.84C61.8909 28.76 62.3042 28.5733 62.6242 28.28C62.9709 27.96 63.1442 27.4533 63.1442 26.76V3.8C63.1442 3.18667 62.9576 2.78666 62.5842 2.6C62.2109 2.38667 61.7576 2.28 61.2242 2.28C60.9576 2.28 60.7042 2.29333 60.4642 2.32C60.2242 2.32 59.9842 2.32 59.7442 2.32C59.5309 2.32 59.3442 2.26667 59.1842 2.16C59.0242 2.05333 58.9442 1.88 58.9442 1.64C58.9442 1.42667 58.9842 1.24 59.0642 1.08C59.1442 0.919998 59.3176 0.839999 59.5842 0.839999C60.0376 0.839999 60.4776 0.853332 60.9042 0.879998C61.3576 0.906665 61.7976 0.919998 62.2242 0.919998C64.9176 0.919998 67.6109 0.906665 70.3042 0.879998C72.9976 0.826666 75.6776 0.799999 78.3442 0.799999C79.5709 0.799999 80.7842 0.759999 81.9842 0.679998C82.0909 1.45333 82.2242 2.22667 82.3842 3C82.5442 3.77333 82.6776 4.54667 82.7842 5.32C82.8376 5.48 82.8776 5.64 82.9042 5.8C82.9309 5.93333 82.9442 6.08 82.9442 6.24C82.9442 6.50666 82.8509 6.69333 82.6642 6.8C82.5042 6.90667 82.3042 6.96 82.0642 6.96C81.8509 6.96 81.6909 6.92 81.5842 6.84C81.5042 6.73333 81.4242 6.57333 81.3442 6.36C80.8376 4.76 80.1576 3.65333 79.3042 3.04C78.4776 2.42667 77.2109 2.12 75.5042 2.12H67.1842V14.16C68.2242 14.16 69.2642 14.16 70.3042 14.16C71.3442 14.1333 72.3976 14.0933 73.4642 14.04C74.5576 13.9867 75.5709 13.8933 76.5042 13.76C77.4642 13.6 78.4776 13.4267 79.5442 13.24H79.5842C79.7442 13.24 79.8242 13.3067 79.8242 13.44C79.8242 13.6267 79.7442 13.96 79.5842 14.44C79.4242 14.92 79.3042 15.24 79.2242 15.4C79.0909 15.72 78.8776 15.88 78.5842 15.88C77.9176 15.88 77.2242 15.84 76.5042 15.76C75.8109 15.6533 75.1176 15.6 74.4242 15.6C73.9442 15.5733 73.4642 15.5733 72.9842 15.6C72.5042 15.6 72.0109 15.6 71.5042 15.6C71.3176 15.6 71.1176 15.6 70.9042 15.6C70.7176 15.5733 70.5176 15.56 70.3042 15.56C69.9042 15.56 69.4642 15.6 68.9842 15.68C68.5042 15.7333 68.0776 15.8933 67.7042 16.16C67.3576 16.4 67.1842 16.8 67.1842 17.36V26.96C67.1842 27.8667 67.4109 28.4 67.8642 28.56C68.3176 28.6933 68.9176 28.76 69.6642 28.76H72.8642C73.6109 28.76 74.4376 28.72 75.3442 28.64C76.2776 28.56 77.1842 28.3867 78.0642 28.12C78.9442 27.8533 79.6642 27.4667 80.2242 26.96C80.8376 26.4 81.2642 25.7867 81.5042 25.12C81.7709 24.4267 82.0776 23.7333 82.4242 23.04C82.5576 22.8 82.7709 22.68 83.0642 22.68C83.3576 22.68 83.5042 22.84 83.5042 23.16ZM116.377 1.36C116.377 1.44 116.351 1.56 116.297 1.72C116.244 1.85333 116.151 1.92 116.017 1.92C115.804 1.92 115.591 1.92 115.377 1.92C115.164 1.89333 114.951 1.88 114.737 1.88C114.017 1.88 113.511 1.96 113.217 2.12C112.951 2.25333 112.791 2.49333 112.737 2.84C112.711 3.18667 112.697 3.66667 112.697 4.28V29.52C112.697 29.76 112.604 29.88 112.417 29.88L110.617 29.92C110.511 29.3333 110.311 28.7467 110.017 28.16C109.751 27.5733 109.431 27.04 109.057 26.56C106.177 22.7733 103.297 19.0133 100.417 15.28C97.5373 11.52 94.6973 7.73333 91.8973 3.92V27.8C91.8973 28.1733 92.0307 28.44 92.2973 28.6C92.5907 28.7333 92.9107 28.8133 93.2573 28.84C93.6307 28.84 93.9507 28.84 94.2173 28.84C94.4307 28.84 94.6307 28.84 94.8173 28.84C95.0307 28.8133 95.244 28.8 95.4573 28.8C95.6973 28.8 95.8173 28.9467 95.8173 29.24C95.8173 29.4533 95.7907 29.64 95.7373 29.8C95.7107 29.96 95.5507 30.04 95.2573 30.04C95.0173 30.04 94.764 30.0267 94.4973 30C94.2573 29.9467 94.0173 29.9067 93.7773 29.88C93.3773 29.8267 92.964 29.8133 92.5373 29.84C92.1107 29.84 91.6973 29.84 91.2973 29.84C90.5507 29.84 89.8173 29.88 89.0973 29.96C88.404 30.0133 87.684 30.04 86.9373 30.04C86.7507 30.04 86.6573 29.92 86.6573 29.68C86.6573 29.28 86.6973 29.04 86.7773 28.96C86.8573 28.88 87.084 28.84 87.4573 28.84C87.6707 28.84 87.8707 28.8533 88.0573 28.88C88.2707 28.88 88.4707 28.88 88.6573 28.88C89.084 28.88 89.4573 28.8267 89.7773 28.72C90.124 28.6133 90.3107 28.3067 90.3373 27.8C90.3907 26.52 90.404 25.2267 90.3773 23.92C90.3507 22.6133 90.3373 21.32 90.3373 20.04C90.3373 17.24 90.3507 14.44 90.3773 11.64C90.4307 8.84 90.4573 6.02667 90.4573 3.2C90.4573 2.72 90.324 2.38667 90.0573 2.2C89.8173 1.98667 89.5107 1.86667 89.1373 1.84C88.764 1.81333 88.3907 1.8 88.0173 1.8C87.884 1.8 87.7373 1.81333 87.5773 1.84C87.4173 1.84 87.2707 1.84 87.1373 1.84C86.7907 1.84 86.6173 1.70666 86.6173 1.44C86.6173 1.25333 86.6307 1.09333 86.6573 0.96C86.7107 0.799998 86.8573 0.719998 87.0973 0.719998C87.7907 0.719998 88.484 0.746665 89.1773 0.799999C89.8707 0.826666 90.564 0.839999 91.2573 0.839999C91.7373 0.839999 92.2173 0.839999 92.6973 0.839999C93.204 0.813332 93.6973 0.799999 94.1773 0.799999C95.164 2.13333 96.1773 3.44 97.2173 4.72C98.2573 6 99.2973 7.28 100.337 8.56C102.151 10.7733 103.964 12.9867 105.777 15.2C107.591 17.3867 109.404 19.5867 111.217 21.8V2.92C111.217 2.54666 111.017 2.28 110.617 2.12C110.217 1.96 109.871 1.88 109.577 1.88C109.231 1.88 108.897 1.89333 108.577 1.92C108.257 1.94667 107.924 1.96 107.577 1.96C107.391 1.96 107.297 1.82667 107.297 1.56C107.297 1.48 107.297 1.4 107.297 1.32C107.297 1.21333 107.311 1.13333 107.337 1.08C107.337 0.839998 107.484 0.719998 107.777 0.719998C108.151 0.719998 108.537 0.746665 108.937 0.799999C109.337 0.826666 109.724 0.839999 110.097 0.839999C111.111 0.839999 112.111 0.826666 113.097 0.799999C114.084 0.773333 115.071 0.719999 116.057 0.639999C116.217 0.746666 116.311 0.853333 116.337 0.96C116.364 1.04 116.377 1.17333 116.377 1.36ZM156.268 8.2C156.268 8.57333 156.108 8.76 155.788 8.76C155.682 8.76 155.588 8.76 155.508 8.76C155.428 8.73333 155.362 8.66667 155.308 8.56C155.282 8.50667 155.242 8.38667 155.188 8.2C155.162 7.98667 155.148 7.84 155.148 7.76C155.015 6.96 154.815 6.08 154.548 5.12C154.308 4.13333 153.922 3.33333 153.388 2.72C153.122 2.4 152.668 2.18667 152.028 2.08C151.388 1.97333 150.735 1.92 150.068 1.92C149.402 1.92 148.882 1.92 148.508 1.92C148.108 1.92 147.615 1.92 147.028 1.92C146.468 1.92 145.962 2.02667 145.508 2.24C145.082 2.45333 144.868 2.88 144.868 3.52C144.868 7.54666 144.882 11.5867 144.908 15.64C144.962 19.6667 144.988 23.7067 144.988 27.76C144.988 28.1067 145.135 28.3733 145.428 28.56C145.722 28.72 146.055 28.8267 146.428 28.88C146.802 28.9333 147.108 28.96 147.348 28.96C147.562 28.96 147.748 28.96 147.908 28.96C148.095 28.9333 148.282 28.92 148.468 28.92C148.735 28.92 148.868 29.04 148.868 29.28C148.868 29.3867 148.868 29.5467 148.868 29.76C148.868 29.9467 148.775 30.04 148.588 30.04C147.628 30.04 146.668 30.0267 145.708 30C144.775 29.9467 143.828 29.92 142.868 29.92C141.588 29.92 140.282 29.96 138.948 30.04C138.655 30.04 138.348 30.0533 138.028 30.08C137.708 30.1067 137.402 30.12 137.108 30.12C136.868 30.12 136.748 29.9733 136.748 29.68C136.748 29.36 136.788 29.16 136.868 29.08C136.948 29 137.135 28.96 137.428 28.96C137.482 28.96 137.535 28.9733 137.588 29C137.668 29 137.722 29 137.748 29C138.042 29 138.415 28.9733 138.868 28.92C139.322 28.8667 139.722 28.76 140.068 28.6C140.442 28.4133 140.628 28.1333 140.628 27.76C140.655 25.7067 140.668 23.6533 140.668 21.6C140.695 19.5467 140.708 17.4933 140.708 15.44C140.708 13.4133 140.695 11.4 140.668 9.4C140.642 7.37333 140.628 5.34667 140.628 3.32C140.628 3 140.495 2.70667 140.228 2.44C139.988 2.17333 139.722 2.02666 139.428 2C139.188 1.94667 138.935 1.92 138.668 1.92C138.428 1.92 138.175 1.92 137.908 1.92H134.348C133.388 1.92 132.668 2.16 132.188 2.64C131.735 3.09333 131.415 3.69333 131.228 4.44C131.042 5.16 130.868 5.90667 130.708 6.68C130.708 6.73333 130.668 6.92 130.588 7.24C130.535 7.53333 130.468 7.82667 130.388 8.12C130.335 8.38667 130.295 8.53333 130.268 8.56C130.162 8.69333 130.002 8.76 129.788 8.76C129.495 8.76 129.348 8.61333 129.348 8.32C129.348 8.21333 129.348 8.08 129.348 7.92C129.375 7.73333 129.402 7.52 129.428 7.28C129.482 6.66667 129.522 5.93333 129.548 5.08C129.602 4.2 129.642 3.38667 129.668 2.64C129.695 2.37333 129.708 2.10667 129.708 1.84C129.708 1.57333 129.722 1.33333 129.748 1.12C129.748 0.746664 129.975 0.586665 130.428 0.639999C132.375 0.826665 134.335 0.919998 136.308 0.919998C138.308 0.893331 140.282 0.879998 142.228 0.879998H145.628C146.722 0.879998 147.815 0.879998 148.908 0.879998C150.028 0.853332 151.148 0.826666 152.268 0.799999C152.748 0.773333 153.242 0.76 153.748 0.76C154.282 0.733332 154.802 0.719998 155.308 0.719998C155.655 0.719998 155.855 0.853331 155.908 1.12C155.935 1.2 155.962 1.49333 155.988 2C156.015 2.48 156.042 3.04 156.068 3.68C156.095 4.29333 156.108 4.88 156.108 5.44C156.135 5.97333 156.148 6.34667 156.148 6.56C156.175 6.82667 156.202 7.09333 156.228 7.36C156.255 7.62666 156.268 7.90667 156.268 8.2ZM190.285 1.16C190.285 1.34667 190.245 1.49333 190.165 1.6C190.112 1.68 189.979 1.72 189.765 1.72C189.499 1.72 189.232 1.72 188.965 1.72C188.699 1.69333 188.432 1.68 188.165 1.68C187.872 1.68 187.539 1.76 187.165 1.92C186.792 2.08 186.605 2.34667 186.605 2.72V27.96C186.605 28.3333 186.792 28.6 187.165 28.76C187.539 28.92 187.872 29 188.165 29C188.459 29 188.739 28.9867 189.005 28.96C189.299 28.9333 189.579 28.92 189.845 28.92C190.085 28.92 190.205 29.0533 190.205 29.32C190.205 29.4 190.205 29.48 190.205 29.56C190.205 29.6133 190.205 29.68 190.205 29.76C190.205 29.9467 190.112 30.04 189.925 30.04C188.992 30.04 188.045 30.0133 187.085 29.96C186.152 29.9067 185.205 29.88 184.245 29.88C183.712 29.88 183.165 29.8933 182.605 29.92C182.072 29.9467 181.539 29.9733 181.005 30C180.659 30.0267 180.312 30.0533 179.965 30.08C179.645 30.1067 179.312 30.12 178.965 30.12C178.805 30.12 178.725 29.9867 178.725 29.72C178.725 29.6133 178.739 29.4667 178.765 29.28C178.792 29.0667 178.872 28.96 179.005 28.96C179.299 28.96 179.605 28.9733 179.925 29C180.245 29 180.552 29 180.845 29C181.139 29 181.485 28.92 181.885 28.76C182.285 28.6 182.485 28.3333 182.485 27.96V15.28H166.365V27.96C166.365 28.3333 166.552 28.6 166.925 28.76C167.299 28.92 167.632 29 167.925 29C168.219 29 168.499 28.9867 168.765 28.96C169.059 28.9333 169.352 28.92 169.645 28.92C169.832 28.92 169.939 28.9867 169.965 29.12C169.992 29.1467 170.005 29.2267 170.005 29.36C170.005 29.4667 170.005 29.5467 170.005 29.6C170.005 29.68 169.979 29.8 169.925 29.96C169.819 30.0133 169.739 30.04 169.685 30.04C168.752 30.04 167.819 30.0133 166.885 29.96C165.979 29.9067 165.059 29.88 164.125 29.88C163.565 29.88 163.005 29.8933 162.445 29.92C161.912 29.9467 161.379 29.9733 160.845 30C160.499 30.0267 160.165 30.0533 159.845 30.08C159.525 30.1067 159.192 30.12 158.845 30.12C158.659 30.12 158.592 30.0533 158.645 29.92C158.592 29.76 158.565 29.6667 158.565 29.64C158.565 29.5333 158.579 29.4 158.605 29.24C158.632 29.0533 158.725 28.96 158.885 28.96C159.179 28.96 159.472 28.9733 159.765 29C160.085 29 160.392 29 160.685 29C161.005 29 161.352 28.92 161.725 28.76C162.125 28.6 162.325 28.3333 162.325 27.96C162.325 25.6667 162.325 23.3733 162.325 21.08C162.352 18.7867 162.365 16.5067 162.365 14.24C162.365 12.3467 162.352 10.44 162.325 8.52C162.325 6.6 162.325 4.69333 162.325 2.8C162.325 2.42667 162.125 2.16 161.725 2C161.352 1.84 161.005 1.76 160.685 1.76C160.392 1.76 160.085 1.77333 159.765 1.8C159.472 1.8 159.179 1.8 158.885 1.8C158.699 1.8 158.592 1.69333 158.565 1.48C158.539 1.26667 158.525 1.10667 158.525 0.999999C158.525 0.759999 158.632 0.639999 158.845 0.639999C159.192 0.639999 159.525 0.653332 159.845 0.679998C160.165 0.706665 160.499 0.733332 160.845 0.76C161.379 0.786666 161.912 0.813332 162.445 0.839999C163.005 0.866665 163.565 0.879998 164.125 0.879998C165.059 0.879998 165.992 0.853332 166.925 0.799999C167.885 0.746665 168.832 0.719998 169.765 0.719998C169.952 0.719998 170.045 0.799998 170.045 0.96C170.045 1.12 170.045 1.26667 170.045 1.4C170.045 1.69333 169.912 1.84 169.645 1.84C169.352 1.84 169.059 1.82666 168.765 1.8C168.499 1.77333 168.219 1.76 167.925 1.76C167.632 1.76 167.299 1.84 166.925 2C166.552 2.16 166.365 2.42667 166.365 2.8V13.96H182.485V3.12C182.485 2.58667 182.339 2.22667 182.045 2.04C181.752 1.85333 181.352 1.76 180.845 1.76C180.552 1.76 180.245 1.77333 179.925 1.8C179.605 1.8 179.299 1.8 179.005 1.8C178.845 1.8 178.752 1.72 178.725 1.56C178.725 1.37333 178.725 1.22666 178.725 1.12C178.725 0.799998 178.832 0.639999 179.045 0.639999C179.685 0.639999 180.339 0.666665 181.005 0.719998C181.699 0.773332 182.379 0.799999 183.045 0.799999H184.245C185.205 0.799999 186.152 0.773332 187.085 0.719998C188.045 0.666665 188.992 0.639999 189.925 0.639999C190.059 0.639999 190.152 0.693332 190.205 0.799999C190.259 0.906666 190.285 1.02667 190.285 1.16ZM217.762 23.16C217.762 23.64 217.722 24.1333 217.642 24.64C217.562 25.12 217.495 25.6 217.442 26.08C217.362 26.6133 217.309 27.16 217.282 27.72C217.255 28.2533 217.175 28.7867 217.042 29.32C217.015 29.48 216.935 29.64 216.802 29.8C216.695 29.9333 216.549 30 216.362 30C213.509 30 210.655 29.9867 207.802 29.96C204.949 29.9067 202.095 29.88 199.242 29.88C198.389 29.88 197.522 29.92 196.642 30C195.789 30.0533 194.935 30.08 194.082 30.08C193.949 30.08 193.815 30.04 193.682 29.96C193.575 29.8533 193.522 29.7333 193.522 29.6C193.522 29.44 193.562 29.2933 193.642 29.16C193.722 29 193.855 28.92 194.042 28.92C194.602 28.92 195.135 28.8933 195.642 28.84C196.149 28.76 196.562 28.5733 196.882 28.28C197.229 27.96 197.402 27.4533 197.402 26.76V3.8C197.402 3.18667 197.215 2.78666 196.842 2.6C196.469 2.38667 196.015 2.28 195.482 2.28C195.215 2.28 194.962 2.29333 194.722 2.32C194.482 2.32 194.242 2.32 194.002 2.32C193.789 2.32 193.602 2.26667 193.442 2.16C193.282 2.05333 193.202 1.88 193.202 1.64C193.202 1.42667 193.242 1.24 193.322 1.08C193.402 0.919998 193.575 0.839999 193.842 0.839999C194.295 0.839999 194.735 0.853332 195.162 0.879998C195.615 0.906665 196.055 0.919998 196.482 0.919998C199.175 0.919998 201.869 0.906665 204.562 0.879998C207.255 0.826666 209.935 0.799999 212.602 0.799999C213.829 0.799999 215.042 0.759999 216.242 0.679998C216.349 1.45333 216.482 2.22667 216.642 3C216.802 3.77333 216.935 4.54667 217.042 5.32C217.095 5.48 217.135 5.64 217.162 5.8C217.189 5.93333 217.202 6.08 217.202 6.24C217.202 6.50666 217.109 6.69333 216.922 6.8C216.762 6.90667 216.562 6.96 216.322 6.96C216.109 6.96 215.949 6.92 215.842 6.84C215.762 6.73333 215.682 6.57333 215.602 6.36C215.095 4.76 214.415 3.65333 213.562 3.04C212.735 2.42667 211.469 2.12 209.762 2.12H201.442V14.16C202.482 14.16 203.522 14.16 204.562 14.16C205.602 14.1333 206.655 14.0933 207.722 14.04C208.815 13.9867 209.829 13.8933 210.762 13.76C211.722 13.6 212.735 13.4267 213.802 13.24H213.842C214.002 13.24 214.082 13.3067 214.082 13.44C214.082 13.6267 214.002 13.96 213.842 14.44C213.682 14.92 213.562 15.24 213.482 15.4C213.349 15.72 213.135 15.88 212.842 15.88C212.175 15.88 211.482 15.84 210.762 15.76C210.069 15.6533 209.375 15.6 208.682 15.6C208.202 15.5733 207.722 15.5733 207.242 15.6C206.762 15.6 206.269 15.6 205.762 15.6C205.575 15.6 205.375 15.6 205.162 15.6C204.975 15.5733 204.775 15.56 204.562 15.56C204.162 15.56 203.722 15.6 203.242 15.68C202.762 15.7333 202.335 15.8933 201.962 16.16C201.615 16.4 201.442 16.8 201.442 17.36V26.96C201.442 27.8667 201.669 28.4 202.122 28.56C202.575 28.6933 203.175 28.76 203.922 28.76H207.122C207.869 28.76 208.695 28.72 209.602 28.64C210.535 28.56 211.442 28.3867 212.322 28.12C213.202 27.8533 213.922 27.4667 214.482 26.96C215.095 26.4 215.522 25.7867 215.762 25.12C216.029 24.4267 216.335 23.7333 216.682 23.04C216.815 22.8 217.029 22.68 217.322 22.68C217.615 22.68 217.762 22.84 217.762 23.16ZM257.595 14.96C257.595 13.84 257.475 12.6667 257.235 11.44C257.022 10.1867 256.675 8.98667 256.195 7.84C255.715 6.69333 255.075 5.72 254.275 4.92C253.528 4.17333 252.648 3.54667 251.635 3.04C250.648 2.50667 249.622 2.18667 248.555 2.08C248.235 2.02667 247.902 2 247.555 2C247.235 2 246.915 2 246.595 2C245.555 2 244.515 2.01333 243.475 2.04C242.462 2.06667 241.435 2.09333 240.395 2.12V26.72C240.395 27.52 240.662 28.04 241.195 28.28C241.728 28.52 242.328 28.64 242.995 28.64C244.062 28.64 245.155 28.6 246.275 28.52C247.422 28.44 248.528 28.2533 249.595 27.96C250.688 27.64 251.688 27.1467 252.595 26.48C254.435 25.12 255.728 23.4133 256.475 21.36C257.222 19.28 257.595 17.1467 257.595 14.96ZM262.035 14.36C262.035 17 261.475 19.5067 260.355 21.88C259.262 24.2533 257.568 26.1467 255.275 27.56C254.342 28.12 253.262 28.5867 252.035 28.96C250.835 29.3067 249.608 29.56 248.355 29.72C247.102 29.88 245.928 29.96 244.835 29.96C243.875 29.96 242.902 29.9333 241.915 29.88C240.955 29.8267 239.982 29.8 238.995 29.8C238.222 29.8 237.435 29.8133 236.635 29.84C235.835 29.84 235.048 29.8667 234.275 29.92C234.142 29.9467 234.008 29.96 233.875 29.96C233.742 29.96 233.608 29.96 233.475 29.96C233.315 29.96 233.222 29.8933 233.195 29.76C233.168 29.6267 233.155 29.5067 233.155 29.4C233.155 29.2133 233.288 29.08 233.555 29C233.848 28.92 234.155 28.8533 234.475 28.8C234.822 28.7467 235.062 28.68 235.195 28.6C235.648 28.36 235.942 28.0133 236.075 27.56C236.235 27.08 236.315 26.6 236.315 26.12C236.315 24.6533 236.315 23.2 236.315 21.76C236.342 20.2933 236.355 18.8267 236.355 17.36V13.68C236.355 12.2133 236.355 10.76 236.355 9.32C236.355 7.88 236.355 6.42666 236.355 4.96C236.355 3.94667 236.235 3.22667 235.995 2.8C235.755 2.37333 235.088 2.16 233.995 2.16C233.808 2.16 233.622 2.17333 233.435 2.2C233.275 2.2 233.102 2.2 232.915 2.2C232.728 2.2 232.555 2.14666 232.395 2.04C232.262 1.90666 232.195 1.74666 232.195 1.56C232.195 1.13333 232.408 0.919998 232.835 0.919998C233.448 0.919998 234.062 0.946665 234.675 0.999999C235.288 1.02667 235.888 1.04 236.475 1.04C238.448 1.04 240.422 0.986665 242.395 0.879998C244.395 0.746665 246.382 0.679998 248.355 0.679998C251.208 0.679998 253.648 1.22667 255.675 2.32C257.728 3.41333 259.302 4.98667 260.395 7.04C261.488 9.06667 262.035 11.5067 262.035 14.36ZM291.087 15.28C291.087 13.7333 290.913 12.16 290.567 10.56C290.247 8.96 289.713 7.48 288.967 6.12C288.22 4.76 287.22 3.66667 285.967 2.84C284.713 1.98667 283.167 1.56 281.327 1.56C279.54 1.56 278.02 2 276.767 2.88C275.513 3.76 274.5 4.90667 273.727 6.32C272.953 7.70667 272.38 9.21333 272.007 10.84C271.66 12.44 271.487 13.9867 271.487 15.48C271.487 17.0533 271.647 18.64 271.967 20.24C272.287 21.8133 272.82 23.2667 273.567 24.6C274.313 25.9067 275.313 26.96 276.567 27.76C277.847 28.56 279.433 28.96 281.327 28.96C283.22 28.96 284.793 28.5467 286.047 27.72C287.3 26.8933 288.287 25.8133 289.007 24.48C289.753 23.12 290.287 21.64 290.607 20.04C290.927 18.44 291.087 16.8533 291.087 15.28ZM295.447 15.16C295.447 18.12 294.9 20.7333 293.807 23C292.74 25.24 291.153 26.9867 289.047 28.24C286.967 29.4933 284.393 30.12 281.327 30.12C278.34 30.12 275.78 29.52 273.647 28.32C271.54 27.0933 269.927 25.3867 268.807 23.2C267.687 20.9867 267.127 18.4133 267.127 15.48C267.127 13.4267 267.46 11.4933 268.127 9.68C268.793 7.86667 269.753 6.26667 271.007 4.88C272.26 3.49333 273.753 2.41333 275.487 1.64C277.247 0.839999 279.193 0.439999 281.327 0.439999C284.313 0.439999 286.847 1.06667 288.927 2.32C291.033 3.54667 292.647 5.26667 293.767 7.48C294.887 9.66667 295.447 12.2267 295.447 15.16ZM329.219 17.68C329.219 17.84 329.179 17.9867 329.099 18.12C329.019 18.2533 328.886 18.32 328.699 18.32H326.219V26.88C324.353 27.52 322.499 28.2267 320.659 29C319.779 29.3733 318.846 29.6133 317.859 29.72C316.899 29.8267 315.953 29.88 315.019 29.88C314.219 29.88 313.326 29.7867 312.339 29.6C311.353 29.4133 310.393 29.1467 309.459 28.8C308.553 28.4533 307.753 28.0533 307.059 27.6C305.033 26.24 303.526 24.48 302.539 22.32C301.579 20.16 301.099 17.8667 301.099 15.44C301.099 13.3867 301.419 11.4533 302.059 9.64C302.726 7.82667 303.673 6.22667 304.899 4.84C306.126 3.45333 307.593 2.37333 309.299 1.6C311.033 0.799999 312.966 0.4 315.099 0.4C316.673 0.4 318.179 0.613333 319.619 1.04C319.859 1.12 320.246 1.24 320.779 1.4C321.313 1.56 321.846 1.72 322.379 1.88C322.913 2.01333 323.273 2.08 323.459 2.08C324.019 2.08 324.406 2.01333 324.619 1.88C324.833 1.72 324.993 1.54667 325.099 1.36C325.233 1.17333 325.419 1.02666 325.659 0.919998H325.979C326.193 0.919998 326.313 1.04 326.339 1.28C326.393 1.54667 326.406 1.82667 326.379 2.12C326.379 2.41333 326.379 2.70667 326.379 3C326.379 3.82667 326.393 4.65333 326.419 5.48C326.473 6.30667 326.499 7.14667 326.499 8C326.499 8.32 326.486 8.69333 326.459 9.12C326.459 9.54667 326.219 9.76 325.739 9.76C325.579 9.76 325.433 9.74667 325.299 9.72C325.193 9.66667 325.086 9.57333 324.979 9.44C324.953 9.38667 324.886 9.24 324.779 9C324.673 8.73333 324.566 8.46667 324.459 8.2C324.353 7.90667 324.273 7.70667 324.219 7.6C323.499 5.97333 322.446 4.61333 321.059 3.52C320.339 2.93333 319.419 2.46667 318.299 2.12C317.206 1.77333 316.193 1.6 315.259 1.6C313.473 1.6 311.953 2.04 310.699 2.92C309.446 3.77333 308.433 4.89333 307.659 6.28C306.886 7.66667 306.326 9.16 305.979 10.76C305.633 12.36 305.459 13.9067 305.459 15.4C305.459 16.9733 305.646 18.52 306.019 20.04C306.393 21.56 306.966 22.9333 307.739 24.16C308.539 25.3867 309.579 26.3733 310.859 27.12C312.139 27.84 313.673 28.2 315.459 28.2C315.993 28.2 316.633 28.1467 317.379 28.04C318.126 27.9333 318.873 27.7467 319.619 27.48C320.366 27.2133 320.979 26.8533 321.459 26.4C321.966 25.9467 322.219 25.3733 322.219 24.68V19.4C322.219 18.9733 322.006 18.7067 321.579 18.6C321.179 18.4667 320.833 18.4 320.539 18.4C320.139 18.4 319.739 18.4267 319.339 18.48C318.939 18.5067 318.539 18.52 318.139 18.52C317.926 18.52 317.779 18.4533 317.699 18.32C317.646 18.1867 317.619 18.0267 317.619 17.84C317.619 17.68 317.646 17.5333 317.699 17.4C317.753 17.24 317.886 17.16 318.099 17.16C318.526 17.16 318.939 17.1733 319.339 17.2C319.739 17.2 320.153 17.2 320.579 17.2H323.419C323.873 17.2 324.326 17.2 324.779 17.2C325.233 17.2 325.686 17.1867 326.139 17.16C326.593 17.16 327.033 17.1467 327.459 17.12C327.886 17.0667 328.313 17.04 328.739 17.04C328.899 17.04 329.019 17.12 329.099 17.28C329.179 17.4133 329.219 17.5467 329.219 17.68Z" fill="#FAF8F1"/>
</svg>
