<svg width="393" height="37" viewBox="0 0 393 37" fill="none" xmlns="http://www.w3.org/2000/svg">
<path d="M27.0769 18.576C27.0769 17.36 26.9809 16.016 26.7889 14.544C26.5969 13.04 26.2769 11.552 25.8289 10.08C25.3809 8.608 24.7729 7.264 24.0049 6.048C23.2369 4.8 22.2769 3.808 21.1249 3.072C20.0049 2.304 18.6609 1.92 17.0929 1.92C15.5249 1.92 14.1649 2.304 13.0129 3.072C11.8609 3.808 10.8849 4.8 10.0849 6.048C9.31694 7.264 8.69294 8.608 8.21294 10.08C7.73294 11.552 7.38094 13.04 7.15694 14.544C6.96494 16.016 6.86894 17.36 6.86894 18.576C6.86894 19.792 6.98094 21.136 7.20494 22.608C7.42894 24.048 7.78094 25.504 8.26094 26.976C8.74094 28.416 9.36494 29.744 10.1329 30.96C10.9329 32.144 11.9089 33.104 13.0609 33.84C14.2129 34.544 15.5569 34.896 17.0929 34.896C18.6929 34.896 20.0529 34.544 21.1729 33.84C22.3249 33.104 23.2689 32.144 24.0049 30.96C24.7729 29.776 25.3809 28.464 25.8289 27.024C26.2769 25.584 26.5969 24.128 26.7889 22.656C26.9809 21.184 27.0769 19.824 27.0769 18.576ZM34.0369 18.48C34.0369 22.096 33.3969 25.248 32.1169 27.936C30.8369 30.624 28.9329 32.704 26.4049 34.176C23.9089 35.648 20.8049 36.384 17.0929 36.384C13.4449 36.384 10.3569 35.648 7.82894 34.176C5.30094 32.672 3.38094 30.592 2.06894 27.936C0.756938 25.248 0.100938 22.128 0.100938 18.576C0.100938 16.08 0.484938 13.744 1.25294 11.568C2.05294 9.36 3.18894 7.424 4.66094 5.76C6.16494 4.096 7.95694 2.8 10.0369 1.872C12.1489 0.943999 14.5009 0.48 17.0929 0.48C20.7409 0.48 23.8289 1.248 26.3569 2.784C28.8849 4.288 30.7889 6.4 32.0689 9.12C33.3809 11.808 34.0369 14.928 34.0369 18.48ZM60.1559 9.648C60.1559 8.304 59.9319 7.072 59.4839 5.952C59.0359 4.832 58.3319 3.952 57.3719 3.312C56.4439 2.64 55.2599 2.304 53.8199 2.304C53.4999 2.304 53.1799 2.304 52.8599 2.304C52.5399 2.272 52.2199 2.256 51.8999 2.256C51.0999 2.256 50.5879 2.336 50.3639 2.496C50.1399 2.624 50.0279 3.136 50.0279 4.032C50.0279 6.208 50.0279 8.4 50.0279 10.608C50.0279 12.816 50.0439 15.008 50.0759 17.184C50.5559 17.6 51.1159 17.872 51.7559 18C52.3959 18.096 53.0199 18.144 53.6279 18.144C55.2919 18.144 56.5879 17.744 57.5159 16.944C58.4759 16.112 59.1479 15.04 59.5319 13.728C59.9479 12.416 60.1559 11.056 60.1559 9.648ZM67.0679 9.504C67.0679 11.616 66.6999 13.344 65.9639 14.688C65.2279 16 64.2199 17.024 62.9399 17.76C61.6919 18.496 60.2519 19.008 58.6199 19.296C57.0199 19.552 55.3239 19.68 53.5319 19.68C52.9559 19.68 52.3799 19.648 51.8039 19.584C51.2279 19.52 50.6519 19.456 50.0759 19.392C50.0759 21.728 50.0759 24.064 50.0759 26.4C50.0759 28.704 50.0759 31.024 50.0759 33.36C50.0759 33.616 50.1239 33.888 50.2199 34.176C50.3479 34.464 50.5719 34.608 50.8919 34.608C51.3079 34.608 51.7079 34.592 52.0919 34.56C52.5079 34.528 52.9239 34.512 53.3399 34.512C53.5639 34.512 53.7399 34.64 53.8679 34.896C54.0279 35.152 54.1079 35.36 54.1079 35.52C54.1079 35.744 54.0279 35.92 53.8679 36.048C53.7079 36.176 53.5319 36.24 53.3399 36.24C52.9239 36.24 52.5079 36.224 52.0919 36.192C51.6759 36.16 51.2439 36.128 50.7959 36.096C50.1559 36.032 49.4999 36 48.8279 36C48.1559 36 47.4999 36 46.8599 36C45.3239 36 43.8039 36.048 42.2999 36.144C41.9479 36.176 41.5959 36.192 41.2439 36.192C40.9239 36.224 40.5879 36.24 40.2359 36.24C39.9159 36.24 39.7079 36.144 39.6119 35.952C39.5159 35.728 39.4679 35.504 39.4679 35.28C39.4679 35.024 39.5639 34.848 39.7559 34.752C39.9479 34.624 40.1559 34.56 40.3799 34.56C40.6679 34.56 40.9559 34.576 41.2439 34.608C41.5319 34.64 41.8359 34.656 42.1559 34.656C42.2199 34.656 42.2999 34.656 42.3959 34.656C42.4919 34.656 42.5719 34.656 42.6359 34.656C43.0839 34.624 43.3399 34.368 43.4039 33.888C43.4999 33.408 43.5479 33.008 43.5479 32.688V4.416C43.5479 4.16 43.5159 3.792 43.4519 3.312C43.3879 2.8 43.1639 2.528 42.7799 2.496C42.6839 2.496 42.5879 2.496 42.4919 2.496C42.4279 2.496 42.3639 2.496 42.2999 2.496C41.9799 2.496 41.6599 2.512 41.3399 2.544C41.0199 2.576 40.6999 2.592 40.3799 2.592C40.1559 2.592 39.9319 2.496 39.7079 2.304C39.5159 2.112 39.4199 1.904 39.4199 1.68C39.4199 1.456 39.5159 1.248 39.7079 1.056C39.9319 0.863998 40.1559 0.767999 40.3799 0.767999C40.7319 0.767999 41.0839 0.783998 41.4359 0.815998C41.8199 0.847998 42.1879 0.879998 42.5399 0.912C43.2759 0.943999 43.9959 0.975999 44.6999 1.008C45.4359 1.008 46.1559 1.008 46.8599 1.008C48.3319 1.008 49.7879 0.975999 51.2279 0.912C52.6999 0.815999 54.1719 0.767999 55.6439 0.767999C57.0519 0.767999 58.4279 0.927999 59.7719 1.248C61.1479 1.536 62.3799 2.016 63.4679 2.688C64.5559 3.36 65.4199 4.256 66.0599 5.376C66.7319 6.496 67.0679 7.872 67.0679 9.504ZM99.8931 27.744C99.8931 28.256 99.8291 28.784 99.7011 29.328C99.6051 29.84 99.5251 30.368 99.4611 30.912C99.3971 31.52 99.3171 32.144 99.2211 32.784C99.1571 33.424 99.0931 34.064 99.0291 34.704C98.9331 35.216 98.7891 35.568 98.5971 35.76C98.4051 35.92 98.0371 36 97.4931 36C94.2291 36 90.9651 35.984 87.7011 35.952C84.4371 35.888 81.1731 35.856 77.9091 35.856C76.7891 35.856 75.6691 35.904 74.5491 36C73.4291 36.128 72.3091 36.192 71.1891 36.192C70.6451 36.192 70.3731 35.92 70.3731 35.376C70.3731 34.832 70.6131 34.56 71.0931 34.56C71.5731 34.528 72.0851 34.48 72.6291 34.416C73.2691 34.352 73.7811 34.112 74.1651 33.696C74.5811 33.248 74.7891 32.352 74.7891 31.008V5.136C74.7891 4.624 74.6931 4.128 74.5011 3.648C74.3411 3.168 73.9411 2.928 73.3011 2.928C72.9171 2.928 72.5331 2.944 72.1491 2.976C71.7651 2.976 71.3811 2.976 70.9971 2.976C70.1971 2.976 69.7971 2.592 69.7971 1.824C69.7971 1.44 69.9251 1.2 70.1811 1.104C70.4371 0.975999 70.7251 0.912 71.0451 0.912C71.9731 0.912 72.8851 0.943999 73.7811 1.008C74.6771 1.04 75.5731 1.056 76.4691 1.056C79.4771 1.056 82.4851 1.04 85.4931 1.008C88.5011 0.943999 91.5091 0.912 94.5171 0.912C95.0931 0.912 95.6691 0.895999 96.2451 0.863997C96.8211 0.799998 97.3971 0.735998 97.9731 0.671997C98.0371 1.184 98.1011 1.696 98.1651 2.208C98.2611 2.72 98.3411 3.232 98.4051 3.744C98.5011 4.352 98.6291 4.992 98.7891 5.664C98.9811 6.336 99.0771 6.992 99.0771 7.632C99.0771 8.016 98.9171 8.336 98.5971 8.592C98.2771 8.816 97.9411 8.928 97.5891 8.928C96.8211 8.928 96.3091 8.592 96.0531 7.92C95.5731 6.416 94.8531 5.168 93.8931 4.176C92.9651 3.152 91.6531 2.64 89.9571 2.64H81.3171V16.752C82.5331 16.752 83.7171 16.736 84.8691 16.704C86.0531 16.672 87.2371 16.608 88.4211 16.512C89.6051 16.416 90.7411 16.224 91.8291 15.936C92.2771 15.84 92.7411 15.712 93.2211 15.552C93.7331 15.392 94.2131 15.312 94.6611 15.312C95.0451 15.312 95.2371 15.488 95.2371 15.84C95.2371 16.064 95.1731 16.4 95.0451 16.848C94.9491 17.296 94.8691 17.632 94.8051 17.856C94.6451 18.272 94.4851 18.528 94.3251 18.624C94.1651 18.688 93.8771 18.72 93.4611 18.72C92.6931 18.72 91.9411 18.672 91.2051 18.576C89.9891 18.448 88.7571 18.368 87.5091 18.336C86.2611 18.272 85.0131 18.24 83.7651 18.24C83.0611 18.24 82.4691 18.432 81.9891 18.816C81.5411 19.168 81.3171 19.728 81.3171 20.496V32.304C81.3171 33.072 81.4131 33.616 81.6051 33.936C81.8291 34.256 82.3411 34.416 83.1411 34.416C84.0051 34.416 84.9651 34.416 86.0211 34.416C87.0771 34.416 88.1491 34.368 89.2371 34.272C90.3571 34.176 91.3971 33.968 92.3571 33.648C93.3171 33.328 94.1171 32.848 94.7571 32.208C95.3011 31.664 95.8291 30.944 96.3411 30.048C96.8531 29.152 97.2691 28.352 97.5891 27.648C97.7491 27.264 97.9091 27.008 98.0691 26.88C98.2291 26.72 98.5171 26.64 98.9331 26.64C99.3171 26.64 99.5731 26.736 99.7011 26.928C99.8291 27.12 99.8931 27.392 99.8931 27.744ZM138.901 1.536C138.901 2.144 138.597 2.448 137.989 2.448C137.733 2.448 137.477 2.432 137.221 2.4C136.965 2.368 136.709 2.352 136.453 2.352C136.325 2.352 136.181 2.368 136.021 2.4C135.861 2.4 135.701 2.4 135.541 2.4C135.221 2.4 135.013 2.608 134.917 3.024C134.821 3.408 134.773 3.84 134.773 4.32C134.773 4.768 134.773 5.088 134.773 5.28V35.184C134.773 35.408 134.741 35.6 134.677 35.76C134.645 35.92 134.485 36.016 134.197 36.048C133.749 36.112 133.269 36.128 132.757 36.096C132.245 36.096 131.765 36.112 131.317 36.144C131.061 35.312 130.693 34.512 130.213 33.744C129.765 32.976 129.285 32.24 128.773 31.536C125.829 27.248 122.709 23.104 119.413 19.104C116.149 15.104 113.013 10.992 110.005 6.768C110.005 11.088 109.989 15.408 109.957 19.728C109.957 24.016 109.957 28.32 109.957 32.64C109.957 32.928 109.989 33.296 110.053 33.744C110.149 34.16 110.389 34.368 110.773 34.368C111.221 34.368 111.669 34.352 112.117 34.32C112.597 34.288 113.045 34.272 113.461 34.272C113.717 34.272 113.877 34.4 113.941 34.656C114.037 34.88 114.085 35.072 114.085 35.232C114.085 35.456 114.021 35.664 113.893 35.856C113.797 36.048 113.621 36.144 113.365 36.144C112.821 36.144 112.277 36.112 111.733 36.048C111.189 35.984 110.645 35.952 110.101 35.952C109.365 35.952 108.613 35.968 107.845 36C107.077 36 106.325 36.032 105.589 36.096C105.301 36.128 105.013 36.144 104.725 36.144C104.469 36.176 104.213 36.192 103.957 36.192C103.317 36.192 102.997 35.856 102.997 35.184C102.997 34.928 103.093 34.72 103.285 34.56C103.477 34.368 103.685 34.272 103.909 34.272C104.229 34.272 104.533 34.304 104.821 34.368C105.109 34.4 105.413 34.416 105.733 34.416C106.213 34.416 106.565 34.352 106.789 34.224C107.045 34.064 107.173 33.696 107.173 33.12C107.173 28.704 107.205 24.288 107.269 19.872C107.365 15.456 107.413 11.04 107.413 6.624C107.413 6.208 107.413 5.808 107.413 5.424C107.413 5.04 107.413 4.64 107.413 4.224C107.413 3.808 107.333 3.392 107.173 2.976C107.045 2.56 106.725 2.352 106.213 2.352C105.829 2.352 105.429 2.368 105.013 2.4C104.629 2.432 104.229 2.448 103.813 2.448C103.269 2.448 102.997 2.144 102.997 1.536C102.997 0.959997 103.285 0.671997 103.861 0.671997C104.693 0.671997 105.525 0.687998 106.357 0.719999C107.189 0.751999 108.005 0.767999 108.805 0.767999C109.541 0.767999 110.277 0.767999 111.013 0.767999C111.781 0.735999 112.533 0.719999 113.269 0.719999C115.157 3.28 117.141 5.76 119.221 8.16C121.333 10.528 123.349 12.976 125.269 15.504C126.389 17.008 127.525 18.512 128.677 20.016C129.829 21.52 130.997 23.008 132.181 24.48C132.181 21.088 132.181 17.696 132.181 14.304C132.213 10.912 132.229 7.52 132.229 4.128C132.229 3.84 132.181 3.488 132.085 3.072C132.021 2.624 131.781 2.4 131.365 2.4H130.069C129.877 2.4 129.685 2.432 129.493 2.496C129.301 2.528 129.109 2.544 128.917 2.544C128.309 2.544 128.005 2.208 128.005 1.536C128.005 1.152 128.117 0.927999 128.341 0.863997C128.565 0.767999 128.837 0.719999 129.157 0.719999C129.797 0.719999 130.421 0.735999 131.029 0.767999C131.669 0.799998 132.293 0.815998 132.901 0.815998C133.733 0.815998 134.565 0.783998 135.397 0.719999C136.261 0.655998 137.109 0.623998 137.941 0.623998C138.197 0.623998 138.421 0.719998 138.613 0.912C138.805 1.072 138.901 1.28 138.901 1.536ZM186.418 9.552C186.418 9.872 186.338 10.176 186.178 10.464C186.018 10.72 185.762 10.848 185.41 10.848C184.898 10.848 184.546 10.736 184.354 10.512C184.194 10.288 184.05 9.968 183.922 9.552C183.826 9.104 183.666 8.56 183.442 7.92C183.25 7.248 183.026 6.592 182.77 5.952C182.546 5.28 182.306 4.768 182.05 4.416C181.922 4.224 181.778 4.048 181.618 3.888C181.458 3.696 181.298 3.52 181.138 3.36C180.914 3.072 180.514 2.88 179.938 2.784C179.362 2.656 178.77 2.592 178.162 2.592C177.554 2.56 177.074 2.544 176.722 2.544C176.306 2.544 175.858 2.544 175.378 2.544C174.898 2.544 174.482 2.656 174.13 2.88C173.778 3.072 173.586 3.456 173.554 4.032C173.522 5.12 173.506 6.24 173.506 7.392C173.506 8.512 173.506 9.632 173.506 10.752C173.506 14.4 173.506 18.048 173.506 21.696C173.538 25.344 173.554 28.992 173.554 32.64C173.554 33.024 173.602 33.472 173.698 33.984C173.826 34.496 174.146 34.752 174.658 34.752C175.138 34.752 175.602 34.736 176.05 34.704C176.53 34.672 177.01 34.656 177.49 34.656C177.746 34.656 177.938 34.768 178.066 34.992C178.194 35.184 178.258 35.376 178.258 35.568C178.258 36.144 177.986 36.432 177.442 36.432C177.09 36.432 176.722 36.416 176.338 36.384C175.986 36.352 175.634 36.32 175.282 36.288C174.674 36.224 174.066 36.192 173.458 36.192C172.85 36.192 172.226 36.192 171.586 36.192C170.53 36.192 169.474 36.192 168.418 36.192C167.362 36.192 166.306 36.224 165.25 36.288C164.866 36.32 164.466 36.352 164.05 36.384C163.666 36.416 163.282 36.432 162.898 36.432C162.61 36.432 162.386 36.336 162.226 36.144C162.066 35.952 161.986 35.728 161.986 35.472C161.986 35.12 162.13 34.912 162.418 34.848C162.706 34.752 162.978 34.704 163.234 34.704C163.586 34.704 163.906 34.72 164.194 34.752C164.514 34.752 164.834 34.752 165.154 34.752C165.986 34.752 166.45 34.56 166.546 34.176C166.674 33.792 166.738 33.248 166.738 32.544V5.76C166.738 4.512 166.674 3.68 166.546 3.264C166.418 2.816 166.082 2.592 165.538 2.592C164.994 2.56 164.098 2.544 162.85 2.544C162.434 2.544 161.858 2.56 161.122 2.592C160.418 2.624 159.89 2.736 159.538 2.928C159.122 3.152 158.786 3.456 158.53 3.84C158.274 4.192 158.066 4.592 157.906 5.04C157.65 5.776 157.394 6.528 157.138 7.296C156.914 8.064 156.674 8.816 156.418 9.552C156.29 10 156.13 10.336 155.938 10.56C155.746 10.752 155.394 10.848 154.882 10.848C154.274 10.848 153.97 10.528 153.97 9.888C153.97 9.056 154.05 8.112 154.21 7.056C154.402 5.968 154.514 4.96 154.546 4.032C154.578 3.52 154.578 3.008 154.546 2.496C154.546 1.952 154.594 1.44 154.69 0.959999C154.722 0.735998 154.834 0.623998 155.026 0.623998C155.378 0.623998 155.73 0.671998 156.082 0.767999C156.466 0.863999 156.834 0.943999 157.186 1.008C157.57 1.04 157.954 1.072 158.338 1.104C158.754 1.104 159.17 1.12 159.586 1.152C161.282 1.184 163.042 1.216 164.866 1.248C166.722 1.248 168.482 1.248 170.146 1.248C172.034 1.248 174.018 1.232 176.098 1.2C178.178 1.168 180.162 1.152 182.05 1.152C182.242 1.152 182.434 1.152 182.626 1.152C182.85 1.152 183.058 1.136 183.25 1.104C183.602 1.04 183.938 0.943998 184.258 0.815998C184.61 0.687998 184.962 0.623998 185.314 0.623998C185.474 0.623998 185.586 0.703998 185.65 0.863997C185.746 1.312 185.81 1.84 185.842 2.448C185.874 3.024 185.906 3.536 185.938 3.984C186.034 4.88 186.13 5.808 186.226 6.768C186.354 7.696 186.418 8.624 186.418 9.552ZM226.367 1.68C226.367 1.904 226.303 2.112 226.175 2.304C226.047 2.496 225.855 2.592 225.599 2.592C225.183 2.592 224.767 2.576 224.351 2.544C223.967 2.512 223.551 2.496 223.103 2.496C222.783 2.496 222.575 2.64 222.479 2.928C222.383 3.216 222.335 3.488 222.335 3.744C222.335 5.792 222.319 7.84 222.287 9.888C222.287 11.904 222.287 13.952 222.287 16.032C222.287 18.944 222.287 21.856 222.287 24.768C222.319 27.648 222.335 30.544 222.335 33.456C222.335 33.712 222.383 33.984 222.479 34.272C222.575 34.56 222.783 34.704 223.103 34.704C223.551 34.704 223.967 34.688 224.351 34.656C224.767 34.624 225.183 34.608 225.599 34.608C225.855 34.608 226.031 34.72 226.127 34.944C226.223 35.168 226.271 35.392 226.271 35.616C226.271 36.096 226.015 36.336 225.503 36.336C225.247 36.336 224.991 36.32 224.735 36.288C224.479 36.256 224.223 36.24 223.967 36.24C223.487 36.176 223.007 36.144 222.527 36.144C222.047 36.144 221.567 36.144 221.087 36.144C219.967 36.144 218.847 36.144 217.727 36.144C216.639 36.144 215.535 36.176 214.415 36.24C214.095 36.24 213.759 36.256 213.407 36.288C213.087 36.32 212.751 36.336 212.399 36.336C212.079 36.336 211.855 36.24 211.727 36.048C211.631 35.856 211.583 35.632 211.583 35.376C211.583 35.12 211.679 34.928 211.871 34.8C212.063 34.672 212.271 34.608 212.495 34.608C212.847 34.608 213.167 34.624 213.455 34.656C213.775 34.688 214.095 34.704 214.415 34.704C214.895 34.704 215.215 34.624 215.375 34.464C215.567 34.272 215.663 33.936 215.663 33.456V18.528H199.871V33.552C199.871 34.032 199.967 34.368 200.159 34.56C200.351 34.72 200.671 34.8 201.119 34.8C201.439 34.8 201.759 34.784 202.079 34.752C202.399 34.72 202.719 34.704 203.039 34.704C203.295 34.704 203.519 34.768 203.711 34.896C203.903 34.992 203.999 35.184 203.999 35.472C203.999 36.08 203.711 36.384 203.135 36.384C201.951 36.384 200.767 36.336 199.583 36.24C198.431 36.176 197.279 36.144 196.127 36.144C195.551 36.144 194.959 36.144 194.351 36.144C193.775 36.144 193.199 36.16 192.623 36.192C192.207 36.224 191.791 36.256 191.375 36.288C190.991 36.352 190.591 36.384 190.175 36.384C189.951 36.384 189.775 36.272 189.647 36.048C189.551 35.856 189.503 35.68 189.503 35.52C189.503 35.36 189.567 35.184 189.695 34.992C189.823 34.8 189.983 34.704 190.175 34.704C190.591 34.704 190.991 34.72 191.375 34.752C191.791 34.784 192.207 34.8 192.623 34.8C192.975 34.8 193.199 34.656 193.295 34.368C193.391 34.08 193.439 33.808 193.439 33.552C193.439 30.384 193.439 27.216 193.439 24.048C193.439 20.88 193.439 17.712 193.439 14.544C193.439 12.752 193.439 10.96 193.439 9.168C193.439 7.344 193.439 5.552 193.439 3.792C193.439 3.536 193.391 3.264 193.295 2.976C193.199 2.688 192.975 2.544 192.623 2.544C192.207 2.544 191.791 2.56 191.375 2.592C190.991 2.624 190.591 2.64 190.175 2.64C189.663 2.64 189.407 2.352 189.407 1.776C189.407 1.552 189.471 1.344 189.599 1.152C189.727 0.959998 189.919 0.863997 190.175 0.863997C191.007 0.863997 191.823 0.895998 192.623 0.959999C193.455 1.024 194.287 1.056 195.119 1.056C196.431 1.056 197.743 1.024 199.055 0.959999C200.399 0.895998 201.727 0.863997 203.039 0.863997C203.647 0.863997 203.951 1.168 203.951 1.776C203.951 2.192 203.775 2.432 203.423 2.496C203.103 2.56 202.799 2.592 202.511 2.592C202.287 2.592 202.063 2.592 201.839 2.592C201.615 2.56 201.375 2.544 201.119 2.544C200.703 2.544 200.383 2.672 200.159 2.928C199.967 3.184 199.871 3.52 199.871 3.936V16.944H215.663V3.744C215.663 3.264 215.567 2.944 215.375 2.784C215.215 2.592 214.895 2.496 214.415 2.496C214.095 2.496 213.775 2.512 213.455 2.544C213.167 2.576 212.847 2.592 212.495 2.592C212.303 2.592 212.095 2.512 211.871 2.352C211.679 2.192 211.583 2 211.583 1.776C211.583 1.168 211.887 0.863997 212.495 0.863997C212.879 0.863997 213.263 0.879998 213.647 0.912C214.031 0.943999 214.415 0.975999 214.799 1.008C215.535 1.04 216.271 1.072 217.007 1.104C217.743 1.104 218.479 1.104 219.215 1.104C220.271 1.104 221.327 1.072 222.383 1.008C223.471 0.911998 224.543 0.863997 225.599 0.863997C225.855 0.863997 226.047 0.943997 226.175 1.104C226.303 1.264 226.367 1.456 226.367 1.68ZM260.002 27.744C260.002 28.256 259.938 28.784 259.81 29.328C259.714 29.84 259.634 30.368 259.57 30.912C259.506 31.52 259.426 32.144 259.33 32.784C259.266 33.424 259.202 34.064 259.138 34.704C259.042 35.216 258.898 35.568 258.706 35.76C258.514 35.92 258.146 36 257.602 36C254.338 36 251.074 35.984 247.81 35.952C244.546 35.888 241.282 35.856 238.018 35.856C236.898 35.856 235.778 35.904 234.658 36C233.538 36.128 232.418 36.192 231.298 36.192C230.754 36.192 230.482 35.92 230.482 35.376C230.482 34.832 230.722 34.56 231.202 34.56C231.682 34.528 232.194 34.48 232.738 34.416C233.378 34.352 233.89 34.112 234.274 33.696C234.69 33.248 234.898 32.352 234.898 31.008V5.136C234.898 4.624 234.802 4.128 234.61 3.648C234.45 3.168 234.05 2.928 233.41 2.928C233.026 2.928 232.642 2.944 232.258 2.976C231.874 2.976 231.49 2.976 231.106 2.976C230.306 2.976 229.906 2.592 229.906 1.824C229.906 1.44 230.034 1.2 230.29 1.104C230.546 0.975999 230.834 0.912 231.154 0.912C232.082 0.912 232.994 0.943999 233.89 1.008C234.786 1.04 235.682 1.056 236.578 1.056C239.586 1.056 242.594 1.04 245.602 1.008C248.61 0.943999 251.618 0.912 254.626 0.912C255.202 0.912 255.778 0.895999 256.354 0.863997C256.93 0.799998 257.506 0.735998 258.082 0.671997C258.146 1.184 258.21 1.696 258.274 2.208C258.37 2.72 258.45 3.232 258.514 3.744C258.61 4.352 258.738 4.992 258.898 5.664C259.09 6.336 259.186 6.992 259.186 7.632C259.186 8.016 259.026 8.336 258.706 8.592C258.386 8.816 258.05 8.928 257.698 8.928C256.93 8.928 256.418 8.592 256.162 7.92C255.682 6.416 254.962 5.168 254.002 4.176C253.074 3.152 251.762 2.64 250.066 2.64H241.426V16.752C242.642 16.752 243.826 16.736 244.978 16.704C246.162 16.672 247.346 16.608 248.53 16.512C249.714 16.416 250.85 16.224 251.938 15.936C252.386 15.84 252.85 15.712 253.33 15.552C253.842 15.392 254.322 15.312 254.77 15.312C255.154 15.312 255.346 15.488 255.346 15.84C255.346 16.064 255.282 16.4 255.154 16.848C255.058 17.296 254.978 17.632 254.914 17.856C254.754 18.272 254.594 18.528 254.434 18.624C254.274 18.688 253.986 18.72 253.57 18.72C252.802 18.72 252.05 18.672 251.314 18.576C250.098 18.448 248.866 18.368 247.618 18.336C246.37 18.272 245.122 18.24 243.874 18.24C243.17 18.24 242.578 18.432 242.098 18.816C241.65 19.168 241.426 19.728 241.426 20.496V32.304C241.426 33.072 241.522 33.616 241.714 33.936C241.938 34.256 242.45 34.416 243.25 34.416C244.114 34.416 245.074 34.416 246.13 34.416C247.186 34.416 248.258 34.368 249.346 34.272C250.466 34.176 251.506 33.968 252.466 33.648C253.426 33.328 254.226 32.848 254.866 32.208C255.41 31.664 255.938 30.944 256.45 30.048C256.962 29.152 257.378 28.352 257.698 27.648C257.858 27.264 258.018 27.008 258.178 26.88C258.338 26.72 258.626 26.64 259.042 26.64C259.426 26.64 259.682 26.736 259.81 26.928C259.938 27.12 260.002 27.392 260.002 27.744ZM305.626 18.048C305.626 16.224 305.418 14.4 305.002 12.576C304.618 10.752 303.978 9.088 303.082 7.584C302.186 6.08 301.002 4.88 299.53 3.984C298.058 3.056 296.25 2.592 294.106 2.592C291.93 2.592 289.786 2.64 287.674 2.736V32.112C287.674 32.944 287.802 33.536 288.058 33.888C288.314 34.24 288.89 34.416 289.786 34.416C290.874 34.416 292.01 34.368 293.194 34.272C294.41 34.176 295.578 33.968 296.698 33.648C297.85 33.296 298.858 32.784 299.722 32.112C301.802 30.416 303.306 28.304 304.234 25.776C305.162 23.248 305.626 20.672 305.626 18.048ZM312.586 17.376C312.586 19.424 312.282 21.44 311.674 23.424C311.066 25.408 310.17 27.248 308.986 28.944C307.834 30.608 306.394 32.016 304.666 33.168C303.546 33.904 302.234 34.512 300.73 34.992C299.226 35.44 297.69 35.76 296.122 35.952C294.586 36.144 293.146 36.24 291.802 36.24C290.682 36.24 289.562 36.192 288.442 36.096C287.354 36.032 286.25 36 285.13 36C284.33 36 283.514 36 282.682 36C281.882 36.032 281.066 36.08 280.234 36.144C279.914 36.176 279.61 36.192 279.322 36.192C279.034 36.224 278.746 36.24 278.458 36.24C277.882 36.24 277.594 35.984 277.594 35.472C277.594 35.152 277.738 34.944 278.026 34.848C278.314 34.752 278.634 34.688 278.986 34.656C279.338 34.592 279.61 34.528 279.802 34.464C280.346 34.208 280.698 33.808 280.858 33.264C281.018 32.72 281.098 32.192 281.098 31.68C281.098 28.768 281.098 25.872 281.098 22.992C281.098 20.112 281.098 17.232 281.098 14.352C281.098 12.688 281.098 11.04 281.098 9.408C281.13 7.744 281.098 6.096 281.002 4.464C281.002 4.4 280.986 4.272 280.954 4.08C280.954 3.856 280.954 3.728 280.954 3.696C280.858 3.312 280.602 3.056 280.186 2.928C279.77 2.8 279.322 2.752 278.842 2.784C278.362 2.784 277.962 2.784 277.642 2.784C277.386 2.784 277.146 2.736 276.922 2.64C276.698 2.512 276.586 2.288 276.586 1.968C276.586 1.36 276.89 1.056 277.498 1.056C278.298 1.056 279.082 1.088 279.85 1.152C280.65 1.184 281.45 1.2 282.25 1.2C284.522 1.2 286.794 1.12 289.066 0.959999C291.37 0.767998 293.658 0.671997 295.93 0.671997C299.386 0.671997 302.362 1.344 304.858 2.688C307.354 4.032 309.258 5.952 310.57 8.448C311.914 10.944 312.586 13.92 312.586 17.376ZM345.28 18.576C345.28 17.36 345.184 16.016 344.992 14.544C344.8 13.04 344.48 11.552 344.032 10.08C343.584 8.608 342.976 7.264 342.208 6.048C341.44 4.8 340.48 3.808 339.328 3.072C338.208 2.304 336.864 1.92 335.296 1.92C333.728 1.92 332.368 2.304 331.216 3.072C330.064 3.808 329.088 4.8 328.288 6.048C327.52 7.264 326.896 8.608 326.416 10.08C325.936 11.552 325.584 13.04 325.36 14.544C325.168 16.016 325.072 17.36 325.072 18.576C325.072 19.792 325.184 21.136 325.408 22.608C325.632 24.048 325.984 25.504 326.464 26.976C326.944 28.416 327.568 29.744 328.336 30.96C329.136 32.144 330.112 33.104 331.264 33.84C332.416 34.544 333.76 34.896 335.296 34.896C336.896 34.896 338.256 34.544 339.376 33.84C340.528 33.104 341.472 32.144 342.208 30.96C342.976 29.776 343.584 28.464 344.032 27.024C344.48 25.584 344.8 24.128 344.992 22.656C345.184 21.184 345.28 19.824 345.28 18.576ZM352.24 18.48C352.24 22.096 351.6 25.248 350.32 27.936C349.04 30.624 347.136 32.704 344.608 34.176C342.112 35.648 339.008 36.384 335.296 36.384C331.648 36.384 328.56 35.648 326.032 34.176C323.504 32.672 321.584 30.592 320.272 27.936C318.96 25.248 318.304 22.128 318.304 18.576C318.304 16.08 318.688 13.744 319.456 11.568C320.256 9.36 321.392 7.424 322.864 5.76C324.368 4.096 326.16 2.8 328.24 1.872C330.352 0.943999 332.704 0.48 335.296 0.48C338.944 0.48 342.032 1.248 344.56 2.784C347.088 4.288 348.992 6.4 350.272 9.12C351.584 11.808 352.24 14.928 352.24 18.48ZM392.519 21.408C392.519 21.664 392.455 21.904 392.327 22.128C392.231 22.352 392.023 22.464 391.703 22.464H389.255V32.4C388.135 32.784 387.031 33.216 385.943 33.696C384.855 34.144 383.767 34.624 382.679 35.136C381.591 35.648 380.407 35.968 379.127 36.096C377.879 36.224 376.647 36.288 375.431 36.288C374.375 36.288 373.239 36.176 372.023 35.952C370.807 35.728 369.623 35.408 368.471 34.992C367.319 34.544 366.311 34.016 365.447 33.408C363.111 31.712 361.399 29.552 360.311 26.928C359.255 24.304 358.727 21.6 358.727 18.816C358.727 16.288 359.111 13.92 359.879 11.712C360.679 9.504 361.815 7.568 363.287 5.904C364.791 4.24 366.583 2.944 368.663 2.016C370.775 1.056 373.143 0.575998 375.767 0.575998C377.847 0.575998 379.895 0.895998 381.911 1.536C382.199 1.632 382.631 1.792 383.207 2.016C383.815 2.24 384.407 2.464 384.983 2.688C385.591 2.88 385.991 2.976 386.183 2.976C386.663 2.976 386.999 2.8 387.191 2.448C387.383 2.096 387.559 1.744 387.719 1.392C387.911 1.04 388.183 0.863997 388.535 0.863997C388.727 0.863997 388.903 0.911998 389.063 1.008C389.255 1.104 389.351 1.264 389.351 1.488C389.351 2.96 389.367 4.416 389.399 5.856C389.463 7.296 389.495 8.752 389.495 10.224C389.495 10.672 389.335 11.04 389.015 11.328C388.727 11.616 388.359 11.76 387.911 11.76C387.367 11.76 386.983 11.648 386.759 11.424C386.567 11.168 386.391 10.8 386.231 10.32C385.431 7.856 384.183 5.872 382.487 4.368C380.823 2.864 378.647 2.112 375.959 2.112C374.679 2.112 373.511 2.416 372.455 3.024C371.399 3.632 370.471 4.432 369.671 5.424C368.903 6.384 368.247 7.44 367.703 8.592C367.159 9.744 366.743 10.864 366.455 11.952C366.167 13.04 365.959 14.16 365.831 15.312C365.703 16.464 365.639 17.616 365.639 18.768C365.639 19.888 365.703 21.008 365.831 22.128C365.959 23.248 366.183 24.352 366.503 25.44C366.919 26.912 367.543 28.32 368.375 29.664C369.207 31.008 370.247 32.112 371.495 32.976C372.775 33.84 374.247 34.272 375.911 34.272C376.519 34.272 377.207 34.192 377.975 34.032C378.775 33.872 379.527 33.632 380.231 33.312C380.967 32.992 381.575 32.576 382.055 32.064C382.535 31.52 382.775 30.864 382.775 30.096V23.76C382.775 23.504 382.695 23.248 382.535 22.992C382.407 22.736 382.199 22.608 381.911 22.608C381.463 22.608 380.999 22.64 380.519 22.704C380.071 22.736 379.623 22.752 379.175 22.752C378.919 22.752 378.695 22.608 378.503 22.32C378.343 22 378.263 21.728 378.263 21.504C378.263 21.28 378.359 21.088 378.551 20.928C378.743 20.768 378.951 20.688 379.175 20.688C379.623 20.688 380.071 20.704 380.519 20.736C380.999 20.736 381.463 20.736 381.911 20.736C382.999 20.736 384.071 20.736 385.127 20.736C386.215 20.704 387.303 20.672 388.391 20.64C388.967 20.608 389.543 20.576 390.119 20.544C390.695 20.48 391.271 20.448 391.847 20.448C392.103 20.448 392.279 20.56 392.375 20.784C392.471 20.976 392.519 21.184 392.519 21.408Z" fill="#C58940"/>
</svg>
